<?xml version="1.0" standalone="no"?>
<!DOCTYPE svg PUBLIC "-//W3C//DTD SVG 20010904//EN"
 "http://www.w3.org/TR/2001/REC-SVG-20010904/DTD/svg10.dtd">
<svg version="1.0" xmlns="http://www.w3.org/2000/svg"
 width="300.000000pt" height="231.000000pt" viewBox="0 0 300.000000 231.000000"
 preserveAspectRatio="xMidYMid meet">
<metadata>
Created by potrace 1.10, written by Peter Selinger 2001-2011
</metadata>
<g transform="translate(0.000000,231.000000) scale(0.100000,-0.100000)"
fill="#000000" stroke="none">
<path d="M640 2132 c-11 -12 -14 -35 -12 -82 2 -36 7 -200 11 -365 l8 -300 1
346 c2 271 5 349 15 364 13 17 49 18 838 16 640 -1 826 -4 836 -14 19 -19 23
-1135 5 -1142 -23 -9 -86 -5 -122 8 -21 8 -79 12 -149 10 -99 -2 -118 1 -141
17 -20 14 -26 26 -23 43 3 14 -3 29 -16 41 -19 17 -22 18 -45 2 -29 -18 -62
-21 -72 -5 -4 7 -47 10 -123 8 -64 -1 -124 1 -133 6 -11 4 -27 0 -44 -14 -32
-25 -47 -26 -64 -6 -28 34 -85 2 -62 -36 7 -10 12 -23 12 -28 0 -23 -82 -29
-388 -29 -239 0 -326 -3 -337 -12 -13 -11 -15 19 -15 235 0 137 -2 246 -4 244
-2 -2 -6 -105 -10 -228 -3 -124 -9 -228 -13 -232 -5 -5 -73 -9 -152 -10 -196
-2 -243 -17 -293 -98 -20 -32 -21 -47 -22 -325 0 -345 3 -364 75 -431 33 -31
57 -45 76 -45 15 -1 578 -2 1250 -3 l1221 -2 38 31 c82 66 79 48 82 397 2 269
1 318 -13 355 -20 50 -64 87 -126 105 -48 13 -290 16 -326 3 l-23 -7 0 588 c0
445 -3 592 -12 601 -9 9 -213 12 -862 11 -781 -1 -852 -2 -866 -17z m758
-1084 c-7 -19 -38 -22 -38 -4 0 10 9 16 21 16 12 0 19 -5 17 -12z m407 -13
c31 -13 79 -41 105 -60 36 -26 58 -35 88 -35 23 0 42 5 45 13 4 10 7 10 18 0
16 -16 95 -17 104 -3 5 8 11 8 19 1 8 -7 117 -12 282 -13 260 -3 270 -4 306
-26 22 -13 45 -40 58 -66 20 -42 21 -56 18 -348 -3 -302 -3 -303 -27 -337 -13
-18 -42 -42 -65 -52 -39 -18 -93 -19 -1255 -19 -1198 0 -1215 0 -1255 20 -82
41 -81 34 -84 392 -3 354 -3 353 65 405 l36 28 271 3 c190 2 275 7 285 15 11
9 15 9 18 0 3 -8 23 -13 53 -13 30 0 50 5 53 13 4 10 7 10 18 0 16 -16 95 -17
105 -2 4 8 9 8 17 0 14 -14 90 -14 104 0 8 8 13 8 17 0 9 -14 93 -14 101 -1 5
8 11 8 20 0 10 -8 25 -2 62 26 26 20 58 41 71 47 12 6 22 15 22 22 0 8 39 12
134 14 124 2 138 0 191 -24z m85 10 c0 -8 -9 -15 -20 -15 -11 0 -20 7 -20 15
0 8 9 15 20 15 11 0 20 -7 20 -15z"/>
<path d="M1553 1025 c-27 -9 -133 -72 -133 -79 0 -2 28 -4 62 -5 41 -1 64 3
69 11 7 10 11 10 21 0 15 -15 90 -16 105 -1 8 8 13 8 17 0 9 -14 93 -14 101
-1 4 7 11 7 18 2 16 -12 77 -21 82 -11 9 13 -61 58 -123 78 -65 22 -162 25
-219 6z m173 -17 c57 -10 62 -13 45 -24 -19 -14 -224 -14 -238 -1 -14 15 0 19
121 36 5 0 37 -4 72 -11z"/>
<path d="M265 900 c-11 -4 -31 -20 -45 -35 l-25 -27 -5 -299 c-3 -164 -2 -313
1 -330 4 -17 19 -43 33 -58 l26 -26 1246 -3 1246 -2 39 39 39 39 0 308 c0 338
-1 342 -59 381 -32 22 -43 23 -205 22 -104 0 -160 -4 -144 -9 15 -4 37 -15 50
-24 17 -12 48 -16 138 -16 120 0 143 -8 166 -52 5 -9 7 -147 4 -307 -5 -283
-6 -291 -27 -313 l-22 -22 -1168 -1 c-642 0 -1192 1 -1220 3 -37 3 -60 11 -78
28 l-25 23 0 290 0 290 24 28 c24 28 25 28 173 33 81 3 291 4 466 2 l319 -3
-36 -39 c-19 -22 -38 -51 -42 -65 -10 -39 4 -90 32 -119 21 -21 25 -31 19 -53
-5 -16 -11 -62 -14 -103 l-6 -75 -68 -3 c-42 -2 -74 2 -83 9 -11 9 -14 43 -14
148 0 131 -1 139 -23 159 -28 27 -92 30 -126 6 -22 -16 -24 -15 -59 19 -68 64
-91 71 -244 72 -193 0 -182 17 -188 -263 -5 -203 -1 -294 12 -308 10 -10 139
-13 133 -3 -4 5 -1 9 4 9 21 0 51 40 51 68 0 38 17 52 62 52 43 0 76 13 136
53 l42 28 2 -33 c1 -29 2 -27 8 12 5 35 7 21 9 -60 1 -58 5 -110 9 -117 4 -7
24 -13 45 -15 20 -1 37 -6 37 -10 0 -12 203 -8 217 4 7 6 13 7 13 4 0 -4 9 -2
20 4 16 8 27 7 50 -7 26 -15 34 -16 63 -4 39 16 50 16 106 -1 35 -10 45 -10
48 0 3 6 11 12 18 12 15 0 45 43 45 65 0 24 11 18 55 -29 49 -54 83 -65 134
-42 35 16 40 16 73 0 23 -11 46 -14 63 -10 35 9 85 61 85 90 0 17 8 13 44 -28
41 -46 45 -48 107 -53 61 -5 65 -4 92 25 l29 30 46 -27 c41 -23 58 -26 137
-26 99 0 140 15 210 77 115 100 125 293 22 406 -102 110 -254 124 -378 35 -22
-15 -46 -32 -54 -37 -24 -17 -45 10 -34 43 13 36 75 100 105 107 13 3 21 10
18 15 -10 18 103 13 126 -4 8 -7 26 -18 39 -25 19 -11 22 -11 19 0 -6 20 -89
57 -129 58 -73 0 -138 -48 -195 -146 -34 -58 -60 -57 -92 6 -12 25 -36 66 -53
93 l-30 47 -267 0 -267 0 -25 -40 c-14 -22 -32 -40 -42 -40 -27 0 -28 -14 -3
-38 32 -31 40 -73 21 -111 -20 -37 -44 -51 -89 -51 -39 0 -83 34 -92 73 -13
51 43 117 98 117 24 0 27 3 22 20 -4 13 2 28 19 45 l25 25 -522 -1 c-287 0
-531 -4 -542 -9z m1670 -46 c17 -7 43 -49 60 -99 9 -28 7 -33 -38 -79 -26 -26
-51 -45 -55 -42 -3 4 -8 19 -10 34 -6 44 -29 62 -82 62 -38 0 -53 -5 -73 -26
-23 -23 -31 -25 -67 -19 -35 6 -46 3 -75 -19 -18 -14 -37 -35 -40 -46 -9 -29
-19 -25 -62 20 -21 22 -49 43 -62 45 -29 5 -25 1 -40 55 -23 83 -23 87 -6 103
14 15 48 17 275 17 142 0 266 -3 275 -6z m-1230 -93 c45 -20 92 -70 101 -107
13 -49 -1 -131 -28 -166 -35 -46 -110 -81 -183 -86 -44 -2 -56 0 -45 7 13 9
12 11 -6 11 -19 0 -21 -6 -23 -67 -3 -80 -14 -92 -86 -93 l-50 0 2 246 c1 173
5 250 14 260 19 23 251 19 304 -5z m1785 -11 c50 -25 106 -90 119 -137 48
-173 -59 -331 -236 -349 -152 -16 -263 84 -263 238 0 45 5 69 14 77 8 7 18 25
21 41 7 32 74 103 120 128 69 36 157 37 225 2z m-1529 -218 l-2 -172 100 0
101 0 0 -45 c0 -55 3 -54 -183 -57 l-137 -3 0 212 c0 240 0 240 81 238 l42 -1
-2 -172z m897 71 c-2 -51 -1 -92 3 -91 4 2 24 23 44 48 101 122 112 131 171
135 30 2 54 0 54 -6 0 -5 -4 -9 -9 -9 -5 0 -41 -38 -81 -85 l-72 -85 76 -105
c42 -57 81 -107 87 -110 21 -14 -5 -24 -46 -18 -28 3 -45 2 -45 -4 0 -6 -9
-13 -19 -16 -14 -3 -30 11 -65 58 -54 74 -72 115 -29 69 15 -17 45 -51 66 -75
44 -50 25 -13 -29 58 -18 24 -38 52 -43 61 -9 15 -12 15 -35 -7 -22 -21 -26
-33 -26 -82 0 -33 -5 -61 -12 -67 -7 -5 -35 -12 -61 -13 l-48 -4 1 209 c1 236
-1 230 76 232 l46 1 -4 -94z m-333 -63 c44 -60 83 -110 87 -110 6 0 -1 161 -8
169 -2 2 -4 -22 -5 -55 -1 -72 -17 -46 -18 30 -1 58 15 75 74 76 l40 0 -3
-190 -3 -190 -27 -6 c-15 -3 -35 -7 -45 -9 -12 -2 -34 18 -71 68 -71 96 -91
136 -39 82 21 -23 53 -59 71 -80 50 -61 28 -25 -44 70 -35 47 -64 90 -64 95 0
6 -4 10 -9 10 -5 0 -7 -47 -4 -108 5 -123 3 -127 -64 -134 l-43 -4 0 186 c0
131 4 190 12 198 7 7 28 12 48 12 34 0 40 -5 115 -110z m-222 -107 c-1 -86 -6
-160 -10 -164 -4 -4 -25 -9 -47 -11 l-39 -3 -4 149 c-5 170 1 186 66 186 l36
0 -2 -157z m777 70 l0 -66 -21 19 c-39 35 -41 50 -13 83 14 17 28 31 30 31 2
0 4 -30 4 -67z"/>
<path d="M404 555 c0 -93 2 -133 3 -88 2 45 2 122 0 170 -1 48 -3 12 -3 -82z"/>
<path d="M520 594 l0 -86 65 4 c50 3 70 9 90 28 52 49 19 141 -51 140 l-29 -1
35 -17 c38 -19 66 -64 54 -90 -5 -13 -9 -9 -14 17 -11 46 -30 62 -85 69 -31 3
-42 8 -33 13 9 6 7 9 -9 9 -22 0 -23 -3 -23 -86z m115 6 c10 -17 -15 -50 -38
-50 -21 0 -52 42 -39 55 9 9 71 6 77 -5z"/>
<path d="M2320 661 c-49 -26 -72 -62 -78 -119 -9 -96 52 -168 140 -166 78 1
128 62 128 156 0 66 -27 114 -75 134 -46 19 -73 18 -115 -5z m135 -21 c13 0
45 -74 45 -101 -1 -33 -1 -33 -20 16 -20 52 -62 95 -93 95 -10 0 -15 4 -12 10
4 6 19 4 42 -5 19 -8 37 -15 38 -15z m-32 -46 c54 -54 39 -167 -23 -176 -71
-11 -127 50 -117 124 7 54 31 78 77 78 27 0 45 -7 63 -26z"/>
<path d="M2121 529 c-4 -118 81 -230 194 -254 18 -3 6 5 -31 23 -96 46 -142
115 -157 237 -4 28 -4 27 -6 -6z"/>
<path d="M864 490 c0 -102 2 -143 3 -92 2 50 2 134 0 185 -1 50 -3 9 -3 -93z"/>
<path d="M1999 883 c15 -16 33 -38 40 -50 13 -26 31 -31 31 -9 0 17 62 65 98
76 18 6 -12 9 -85 9 l-113 1 29 -27z"/>
<path d="M1471 2036 c-16 -19 -11 -46 12 -60 25 -16 52 4 52 40 0 24 -5 30
-26 32 -14 2 -31 -4 -38 -12z m54 -14 c8 -22 -16 -44 -35 -32 -13 8 -12 10 3
10 9 0 17 5 17 11 0 6 -9 8 -22 3 -19 -6 -21 -5 -11 8 16 19 41 19 48 0z"/>
<path d="M1352 1918 c-17 -17 -15 -32 7 -52 16 -15 22 -15 40 -4 34 21 21 68
-19 68 -9 0 -21 -5 -28 -12z m43 -28 c0 -22 -29 -18 -33 3 -3 14 1 18 15 15
10 -2 18 -10 18 -18z"/>
<path d="M1472 1918 c-17 -17 -15 -32 7 -52 15 -14 24 -15 40 -6 35 18 21 70
-19 70 -9 0 -21 -5 -28 -12z m48 -22 c0 -20 -19 -31 -32 -18 -6 6 -7 15 -4 21
10 16 36 13 36 -3z"/>
<path d="M1592 1909 c-11 -18 -11 -24 4 -40 22 -25 39 -24 58 3 14 20 14 24
-1 40 -21 24 -45 23 -61 -3z m48 -12 c0 -8 -3 -17 -7 -20 -9 -9 -34 13 -27 24
8 14 34 11 34 -4z"/>
<path d="M1298 1819 c-35 -20 -11 -75 28 -67 31 6 40 34 20 57 -22 24 -24 24
-48 10z m42 -30 c0 -12 -29 -24 -37 -16 -3 4 -3 13 0 21 6 16 37 11 37 -5z"/>
<path d="M1415 1814 c-19 -20 -16 -43 8 -58 37 -23 77 35 41 61 -23 17 -29 16
-49 -3z m41 -15 c10 -17 -13 -36 -27 -22 -12 12 -4 33 11 33 5 0 12 -5 16 -11z"/>
<path d="M1536 1811 c-14 -15 -15 -24 -6 -40 13 -26 41 -27 63 -3 15 16 15 20
1 40 -19 27 -36 28 -58 3z m44 -27 c0 -14 -21 -19 -33 -7 -9 9 13 34 24 27 5
-3 9 -12 9 -20z"/>
<path d="M1657 1812 c-22 -25 -21 -38 5 -56 42 -30 87 24 48 56 -28 22 -33 22
-53 0z m44 -35 c-5 -5 -17 -7 -26 -3 -14 5 -15 9 -5 21 10 12 16 13 27 4 9 -8
10 -16 4 -22z"/>
<path d="M1232 1708 c-18 -18 -14 -46 9 -58 16 -9 25 -8 40 6 23 21 24 28 3
48 -19 19 -36 20 -52 4z m43 -28 c0 -22 -29 -18 -33 3 -3 14 1 18 15 15 10 -2
18 -10 18 -18z"/>
<path d="M1352 1708 c-19 -19 -14 -46 9 -59 18 -9 25 -7 43 10 16 17 18 25 10
39 -14 21 -45 27 -62 10z m44 -19 c10 -17 -13 -36 -27 -22 -12 12 -4 33 11 33
5 0 12 -5 16 -11z"/>
<path d="M1472 1708 c-17 -17 -15 -32 7 -52 15 -14 24 -15 40 -6 35 18 21 70
-19 70 -9 0 -21 -5 -28 -12z m48 -22 c0 -20 -19 -31 -32 -18 -6 6 -7 15 -4 21
10 16 36 13 36 -3z"/>
<path d="M1595 1700 c-18 -20 -18 -21 3 -43 18 -17 26 -19 40 -11 22 14 27 41
12 59 -17 20 -34 19 -55 -5z m45 -14 c0 -21 -21 -31 -30 -15 -5 7 -6 17 -4 21
9 14 34 9 34 -6z"/>
<path d="M1717 1702 c-15 -16 -15 -20 -1 -40 19 -27 36 -28 58 -3 15 16 15 22
4 40 -16 26 -40 27 -61 3z m43 -23 c0 -24 -23 -21 -28 4 -2 10 3 17 12 17 10
0 16 -9 16 -21z"/>
<path d="M1169 1601 c-25 -20 -21 -44 10 -60 25 -14 68 17 58 42 -11 30 -43
39 -68 18z m46 -20 c3 -5 1 -13 -5 -16 -15 -9 -43 3 -35 15 8 13 32 13 40 1z"/>
<path d="M1297 1602 c-23 -25 -21 -45 4 -60 18 -11 24 -11 40 4 24 21 24 36 1
57 -23 21 -25 21 -45 -1z m43 -27 c0 -8 -9 -15 -20 -15 -11 0 -20 7 -20 15 0
8 9 15 20 15 11 0 20 -7 20 -15z"/>
<path d="M1422 1604 c-27 -19 -28 -36 -2 -59 19 -17 21 -17 40 0 25 22 25 37
2 58 -16 15 -20 15 -40 1z m38 -29 c0 -8 -9 -15 -20 -15 -11 0 -20 7 -20 15 0
8 9 15 20 15 11 0 20 -7 20 -15z"/>
<path d="M1542 1604 c-29 -20 -28 -40 4 -61 26 -16 27 -16 46 6 16 21 17 27 5
44 -18 28 -28 30 -55 11z"/>
<path d="M1654 1599 c-19 -22 -13 -43 19 -63 12 -8 21 -5 36 8 26 23 26 38 3
59 -24 22 -35 21 -58 -4z m51 -18 c3 -5 1 -13 -5 -16 -15 -9 -43 3 -35 15 8
13 32 13 40 1z"/>
<path d="M1780 1600 c-22 -22 -18 -45 12 -61 15 -8 24 -7 39 7 24 21 24 36 1
57 -24 22 -28 21 -52 -3z"/>
<path d="M1105 1490 c-17 -19 -17 -21 0 -40 22 -25 37 -25 58 -2 15 16 15 20
1 40 -19 27 -36 28 -59 2z m49 -15 c3 -9 -1 -18 -10 -22 -19 -7 -39 11 -30 26
10 16 33 13 40 -4z"/>
<path d="M1232 1498 c-15 -15 -15 -41 0 -56 31 -31 79 10 56 48 -14 23 -38 26
-56 8z m43 -29 c0 -7 -8 -15 -17 -17 -18 -3 -25 18 -11 32 10 10 28 1 28 -15z"/>
<path d="M1350 1495 c-26 -32 13 -81 48 -59 34 22 22 74 -18 74 -10 0 -23 -7
-30 -15z m45 -26 c0 -7 -8 -15 -17 -17 -18 -3 -25 18 -11 32 10 10 28 1 28
-15z"/>
<path d="M1471 1494 c-10 -12 -11 -21 -2 -41 13 -28 47 -29 65 0 23 37 -34 74
-63 41z m47 -27 c2 -10 -3 -17 -12 -17 -18 0 -29 16 -21 31 9 14 29 6 33 -14z"/>
<path d="M1595 1490 c-18 -20 -18 -21 3 -43 18 -17 26 -19 40 -11 22 14 27 41
12 59 -17 20 -34 19 -55 -5z m45 -20 c0 -11 -6 -20 -13 -20 -19 0 -27 10 -20
26 8 21 33 17 33 -6z"/>
<path d="M1722 1498 c-32 -32 2 -79 43 -60 30 14 32 33 7 55 -22 20 -34 21
-50 5z m38 -28 c0 -11 -7 -20 -15 -20 -15 0 -21 21 -8 33 12 13 23 7 23 -13z"/>
<path d="M1836 1489 c-14 -21 -14 -24 1 -41 32 -36 92 0 67 40 -17 26 -50 27
-68 1z m50 -10 c10 -17 -13 -36 -27 -22 -12 12 -4 33 11 33 5 0 12 -5 16 -11z"/>
<path d="M1672 1403 c-7 -3 -17 -14 -23 -25 -8 -15 -7 -24 7 -39 9 -10 22 -19
29 -19 19 0 48 38 42 54 -7 18 -38 35 -55 29z m33 -32 c3 -5 1 -13 -5 -16 -15
-9 -43 3 -35 15 8 13 32 13 40 1z"/>
<path d="M1786 1391 c-22 -24 -20 -48 5 -62 18 -9 25 -7 41 9 16 16 18 24 9
40 -15 28 -37 33 -55 13z m42 -28 c2 -8 -5 -13 -17 -13 -12 0 -21 6 -21 16 0
18 31 15 38 -3z"/>
<path d="M1912 1394 c-27 -19 -28 -36 -3 -58 37 -34 81 19 44 55 -17 17 -20
18 -41 3z m38 -29 c0 -8 -9 -15 -20 -15 -11 0 -20 7 -20 15 0 8 9 15 20 15 11
0 20 -7 20 -15z"/>
<path d="M1042 1388 c-17 -17 -15 -32 7 -52 15 -14 24 -15 40 -6 35 18 21 70
-19 70 -9 0 -21 -5 -28 -12z"/>
<path d="M1161 1382 c-7 -14 -6 -25 5 -40 18 -27 25 -27 54 -4 19 16 21 22 11
40 -14 27 -56 29 -70 4z m54 -11 c3 -5 1 -13 -5 -16 -15 -9 -43 3 -35 15 8 13
32 13 40 1z"/>
<path d="M1287 1385 c-19 -18 -13 -41 15 -56 29 -15 68 22 52 49 -15 23 -48
27 -67 7z m51 -22 c2 -8 -5 -13 -17 -13 -12 0 -21 6 -21 16 0 18 31 15 38 -3z"/>
<path d="M1411 1386 c-7 -8 -10 -24 -6 -35 9 -29 36 -35 59 -11 16 16 18 24
10 38 -14 22 -48 27 -63 8z m47 -23 c2 -8 -5 -13 -17 -13 -12 0 -21 6 -21 16
0 18 31 15 38 -3z"/>
<path d="M1529 1384 c-14 -18 -5 -40 25 -58 14 -9 21 -6 37 13 18 22 18 25 3
42 -21 23 -47 24 -65 3z"/>
<path d="M984 1279 c-14 -15 -16 -24 -8 -37 16 -24 47 -26 68 -3 17 19 17 20
-3 40 -26 26 -33 26 -57 0z m46 -25 c0 -17 -26 -19 -36 -3 -7 12 15 31 28 23
4 -3 8 -12 8 -20z"/>
<path d="M1112 1284 c-27 -19 -27 -24 -2 -52 16 -17 25 -20 39 -12 28 14 34
40 15 61 -21 23 -24 23 -52 3z m39 -37 c-5 -5 -17 -7 -26 -3 -14 5 -15 9 -5
21 10 12 16 13 27 4 9 -8 10 -16 4 -22z"/>
<path d="M1238 1289 c-35 -20 -11 -75 28 -67 31 6 40 34 20 57 -22 24 -24 24
-48 10z m36 -40 c-8 -14 -34 -11 -34 4 0 8 3 17 7 20 9 9 34 -13 27 -24z"/>
<path d="M1358 1286 c-32 -24 -11 -72 28 -64 31 6 40 34 20 57 -22 24 -25 25
-48 7z m42 -27 c0 -12 -29 -24 -37 -16 -3 4 -3 13 0 21 6 16 37 11 37 -5z"/>
<path d="M1474 1279 c-23 -25 -9 -53 29 -57 21 -3 28 2 33 23 5 19 1 30 -12
40 -25 19 -28 19 -50 -6z m46 -25 c0 -17 -26 -19 -36 -3 -7 12 15 31 28 23 4
-3 8 -12 8 -20z"/>
<path d="M1596 1281 c-23 -25 -6 -64 26 -59 29 4 46 33 32 56 -16 24 -37 26
-58 3z m44 -27 c0 -14 -21 -19 -33 -7 -9 9 13 34 24 27 5 -3 9 -12 9 -20z"/>
<path d="M1720 1280 c-16 -16 -18 -25 -10 -40 14 -26 56 -26 70 0 12 23 7 35
-20 50 -15 8 -24 6 -40 -10z"/>
<path d="M1848 1289 c-35 -20 -11 -75 28 -67 31 6 40 34 20 57 -22 24 -24 24
-48 10z m40 -31 c-7 -19 -38 -22 -38 -4 0 10 9 16 21 16 12 0 19 -5 17 -12z"/>
<path d="M1967 1282 c-22 -24 -21 -35 1 -55 16 -15 20 -15 40 -1 26 18 28 37
6 58 -20 20 -27 20 -47 -2z m35 -34 c-9 -9 -15 -9 -24 0 -10 10 -10 15 2 22
20 12 38 -6 22 -22z"/>
<path d="M922 1178 c-32 -32 18 -87 53 -58 28 23 12 70 -25 70 -9 0 -21 -5
-28 -12z m44 -19 c10 -17 -13 -36 -27 -22 -12 12 -4 33 11 33 5 0 12 -5 16
-11z"/>
<path d="M1039 1169 c-9 -18 -7 -25 10 -43 17 -16 25 -18 39 -10 22 14 27 41
12 59 -18 22 -48 18 -61 -6z m51 -13 c0 -20 -19 -31 -32 -18 -6 6 -7 15 -4 21
10 16 36 13 36 -3z"/>
<path d="M1165 1170 c-17 -19 -17 -21 0 -40 10 -11 23 -20 30 -20 7 0 20 9 30
20 17 19 17 21 0 40 -10 11 -23 20 -30 20 -7 0 -20 -9 -30 -20z m49 -8 c2 -4
1 -14 -4 -22 -7 -11 -11 -11 -24 -1 -9 7 -13 17 -10 22 7 11 31 12 38 1z"/>
<path d="M1286 1171 c-15 -17 -15 -20 2 -41 21 -27 57 -21 67 11 14 43 -37 65
-69 30z m50 -12 c10 -17 -13 -36 -27 -22 -12 12 -4 33 11 33 5 0 12 -5 16 -11z"/>
<path d="M1412 1178 c-32 -32 8 -80 48 -58 34 18 19 70 -20 70 -9 0 -21 -5
-28 -12z m44 -19 c10 -17 -13 -36 -27 -22 -12 12 -4 33 11 33 5 0 12 -5 16
-11z"/>
<path d="M1536 1174 c-17 -16 -14 -26 12 -56 18 -22 32 -23 32 -3 0 7 8 18 17
24 17 9 16 11 -1 30 -23 25 -39 26 -60 5z m40 -15 c10 -17 -13 -36 -27 -22
-12 12 -4 33 11 33 5 0 12 -5 16 -11z"/>
<path d="M1648 1167 c-15 -22 -15 -24 5 -37 21 -13 21 -13 2 -21 -14 -5 -7 -8
25 -8 25 1 39 3 32 6 -10 4 -10 9 3 23 14 15 14 21 3 39 -17 27 -49 26 -70 -2z
m55 -4 c4 -3 2 -12 -4 -20 -9 -10 -15 -10 -25 -2 -8 6 -11 15 -8 20 6 11 28
12 37 2z"/>
<path d="M1776 1171 c-15 -17 -15 -20 3 -42 16 -19 23 -22 37 -13 30 18 39 40
25 58 -18 21 -44 20 -65 -3z m50 -12 c10 -17 -13 -36 -27 -22 -12 12 -4 33 11
33 5 0 12 -5 16 -11z"/>
<path d="M1900 1175 c-26 -32 13 -81 48 -59 34 22 22 74 -18 74 -10 0 -23 -7
-30 -15z m46 -16 c10 -17 -13 -36 -27 -22 -12 12 -4 33 11 33 5 0 12 -5 16
-11z"/>
<path d="M2019 1174 c-14 -17 -5 -40 23 -58 20 -12 48 8 48 33 0 38 -46 54
-71 25z m47 -15 c10 -17 -13 -36 -27 -22 -12 12 -4 33 11 33 5 0 12 -5 16 -11z"/>
<path d="M864 1069 c-14 -15 -16 -24 -8 -37 15 -23 48 -27 63 -8 16 19 9 41
-17 55 -15 8 -23 6 -38 -10z m46 -24 c0 -8 -9 -15 -20 -15 -11 0 -20 7 -20 15
0 8 9 15 20 15 11 0 20 -7 20 -15z"/>
<path d="M988 1070 c-19 -15 -21 -22 -12 -37 15 -25 42 -28 64 -8 14 13 17 22
10 35 -15 27 -37 31 -62 10z"/>
<path d="M1110 1072 c-26 -21 -23 -45 9 -62 17 -8 25 -6 41 10 24 24 23 38 -7
57 -17 12 -23 11 -43 -5z m45 -21 c3 -5 1 -13 -5 -16 -15 -9 -43 3 -35 15 8
13 32 13 40 1z"/>
<path d="M1229 1069 c-20 -20 -20 -22 -3 -40 22 -25 50 -24 64 1 12 23 7 35
-20 50 -15 8 -24 6 -41 -11z"/>
<path d="M1964 1069 c-14 -15 -16 -24 -8 -37 16 -24 47 -26 68 -3 17 18 16 20
-5 40 -28 26 -31 26 -55 0z m46 -24 c0 -8 -9 -15 -20 -15 -11 0 -20 7 -20 15
0 8 9 15 20 15 11 0 20 -7 20 -15z"/>
<path d="M2084 1069 c-20 -23 -11 -51 20 -57 41 -8 63 48 27 68 -26 13 -25 13
-47 -11z"/>
</g>
</svg>
