<?xml version="1.0" standalone="no"?>
<!DOCTYPE svg PUBLIC "-//W3C//DTD SVG 20010904//EN"
 "http://www.w3.org/TR/2001/REC-SVG-20010904/DTD/svg10.dtd">
<svg version="1.0" xmlns="http://www.w3.org/2000/svg"
 width="540.000000pt" height="416.000000pt" viewBox="0 0 540.000000 416.000000"
 preserveAspectRatio="xMidYMid meet">

<g transform="translate(0.000000,416.000000) scale(0.100000,-0.100000)"
fill="#000000" stroke="none">
<path d="M1156 3834 c-9 -8 -16 -21 -16 -27 0 -7 -4 -6 -10 3 -8 12 -10 10
-10 -10 0 -15 -6 -32 -12 -38 -10 -10 -15 -106 -20 -375 -13 -739 -83 -1374
-159 -1442 -9 -9 -26 -18 -38 -20 -26 -5 -209 42 -230 59 -8 6 -17 10 -20 9
-9 -4 -45 9 -51 18 -3 4 -17 10 -30 13 -14 3 -50 11 -80 19 -30 7 -80 11 -110
10 -69 -4 -225 -10 -307 -11 l-63 -2 0 -570 0 -570 35 0 c43 0 78 -31 105 -93
22 -48 57 -217 70 -329 5 -42 16 -90 24 -105 15 -28 73 -92 117 -128 l24 -20
-17 20 c-9 11 -28 43 -42 71 l-26 52 0 551 0 550 23 53 c25 56 75 107 129 132
77 35 139 38 583 31 l433 -7 11 21 c15 27 38 27 46 1 6 -18 15 -20 83 -20 66
0 79 3 90 20 16 26 39 26 47 0 6 -18 15 -20 83 -20 66 0 79 3 90 20 16 26 42
26 49 0 5 -18 14 -20 82 -20 65 0 78 3 89 20 7 11 19 20 28 20 9 0 18 -9 21
-20 5 -18 14 -20 83 -20 60 0 79 3 84 15 7 20 42 19 50 0 8 -21 33 -7 101 52
27 23 80 59 117 79 49 25 68 41 68 55 0 26 30 37 44 16 11 -14 18 -14 71 -1
81 19 338 19 380 -1 17 -8 57 -26 89 -40 54 -23 162 -93 236 -152 23 -19 40
-23 94 -23 55 0 67 3 76 20 14 26 40 26 47 0 5 -18 14 -20 88 -20 74 0 83 2
88 20 7 26 37 26 44 0 3 -13 14 -20 29 -20 26 0 30 -10 12 -28 -9 -9 -70 -12
-215 -12 l-203 0 7 -30 c7 -39 -11 -39 -57 0 l-34 30 -495 0 -494 0 -41 -45
c-23 -25 -51 -62 -63 -83 l-21 -38 34 -54 c53 -84 60 -116 35 -170 -26 -59
-39 -74 -84 -99 -105 -59 -250 26 -250 146 0 80 93 183 166 183 12 0 27 4 33
8 12 7 84 133 84 145 0 13 -1854 8 -1891 -4 -48 -17 -95 -54 -127 -102 l-27
-41 0 -556 c0 -467 2 -562 15 -586 21 -43 70 -93 110 -112 32 -16 194 -17
2246 -17 1946 0 2214 2 2240 15 48 25 92 69 113 116 20 43 21 59 21 578 0 396
-3 542 -12 563 -22 52 -68 101 -116 125 -45 22 -58 23 -344 28 -258 4 -300 7
-314 21 -15 16 -2 17 177 24 199 7 414 3 459 -9 14 -3 -3 8 -38 25 -51 25 -76
31 -125 31 -34 0 -89 3 -122 8 -115 18 -181 20 -263 8 -45 -6 -85 -9 -87 -6
-3 3 -8 468 -11 1034 -5 862 -8 1033 -20 1052 l-14 22 -1540 0 c-1385 0 -1540
-2 -1554 -16z m1524 -128 c0 -2 -7 -7 -16 -10 -8 -3 -12 -2 -9 4 6 10 25 14
25 6z m109 -50 c-2 -2 -13 8 -23 22 l-19 27 24 -22 c12 -12 21 -24 18 -27z
m-172 -43 c-3 -10 -5 -4 -5 12 0 17 2 24 5 18 2 -7 2 -21 0 -30z m-112 -203
c0 -16 -6 -26 -18 -28 -19 -4 -32 20 -23 44 9 25 41 13 41 -16z m220 0 c0 -18
-6 -26 -21 -28 -26 -4 -40 24 -23 45 18 21 44 11 44 -17z m220 0 c0 -18 -6
-26 -21 -28 -26 -4 -40 24 -23 45 18 21 44 11 44 -17z m-561 -166 c18 -7 22
-39 6 -49 -15 -9 -50 4 -50 19 0 6 5 17 12 24 14 14 12 14 32 6z m226 -9 c15
-18 6 -45 -13 -45 -8 0 -20 7 -27 15 -10 12 -10 18 0 30 16 19 24 19 40 0z
m225 -5 c12 -37 -20 -55 -45 -25 -10 12 -10 18 0 30 17 21 37 19 45 -5z m225
5 c16 -19 -3 -45 -32 -45 -24 0 -34 26 -18 45 16 19 34 19 50 0z m-782 -184
c20 -12 10 -46 -14 -49 -25 -4 -40 24 -23 44 13 16 19 17 37 5z m220 0 c21
-13 10 -46 -16 -49 -17 -3 -22 1 -22 21 0 35 13 45 38 28z m220 0 c20 -12 10
-46 -14 -49 -25 -4 -40 24 -23 44 13 16 19 17 37 5z m222 -6 c16 -20 6 -45
-19 -45 -23 0 -32 18 -19 43 11 21 22 22 38 2z m228 -19 c-4 -25 -43 -34 -51
-12 -4 9 1 22 9 30 20 20 46 9 42 -18z m-988 -185 c0 -29 -23 -43 -45 -27 -25
18 -13 46 20 46 18 0 25 -5 25 -19z m220 0 c0 -29 -23 -43 -45 -27 -25 18 -13
46 20 46 18 0 25 -5 25 -19z m217 3 c3 -8 -1 -22 -9 -30 -12 -12 -17 -12 -33
-1 -23 17 -14 47 15 47 11 0 23 -7 27 -16z m220 0 c3 -8 -1 -22 -9 -30 -12
-12 -17 -12 -33 -1 -23 17 -14 47 15 47 11 0 23 -7 27 -16z m226 2 c3 -8 -2
-21 -12 -30 -15 -13 -20 -14 -36 -2 -11 8 -16 20 -12 30 8 20 53 21 60 2z
m216 1 c8 -11 6 -18 -8 -31 -17 -16 -20 -16 -35 -1 -9 9 -16 20 -16 24 0 23
41 29 59 8z m-1217 -184 c17 -15 17 -18 2 -34 -13 -14 -21 -16 -35 -8 -22 11
-24 30 -7 47 15 15 18 15 40 -5z m222 -5 c15 -24 -10 -51 -35 -37 -22 11 -24
30 -7 47 15 15 28 11 42 -10z m220 0 c7 -12 6 -21 -3 -32 -17 -20 -41 -9 -41
18 0 39 23 46 44 14z m210 16 c9 -3 16 -17 16 -30 0 -19 -5 -24 -24 -24 -28 0
-37 17 -24 43 10 19 10 19 32 11z m220 0 c21 -8 20 -38 0 -55 -14 -11 -18 -10
-30 5 -9 13 -10 24 -3 37 11 21 11 21 33 13z m220 0 c21 -8 20 -50 -1 -58 -24
-10 -46 21 -32 45 11 21 11 21 33 13z m220 0 c9 -3 16 -17 16 -30 0 -19 -5
-24 -25 -24 -30 0 -43 24 -25 45 14 17 13 17 34 9z m-1417 -228 c-4 -9 -16
-16 -27 -16 -29 0 -38 30 -15 47 16 11 21 11 33 -1 8 -8 12 -22 9 -30z m220 0
c-4 -9 -16 -16 -27 -16 -29 0 -38 30 -15 47 16 11 21 11 33 -1 8 -8 12 -22 9
-30z m223 3 c0 -14 -7 -19 -25 -19 -33 0 -45 28 -20 46 22 16 45 2 45 -27z
m217 -3 c-4 -9 -16 -16 -27 -16 -29 0 -38 30 -15 47 16 11 21 11 33 -1 8 -8
12 -22 9 -30z m223 3 c0 -14 -7 -19 -25 -19 -33 0 -45 28 -20 46 22 16 45 2
45 -27z m214 26 c20 -21 9 -45 -20 -45 -32 0 -43 29 -19 46 23 17 20 17 39 -1z
m224 -32 c-13 -16 -50 -14 -55 3 -2 7 4 19 13 28 15 16 18 16 35 0 15 -13 16
-20 7 -31z m217 31 c19 -19 4 -44 -26 -44 -22 0 -27 45 -6 53 6 3 13 6 14 6 1
1 9 -6 18 -15z m-1646 -197 c8 -11 6 -18 -9 -32 -19 -17 -22 -17 -37 -3 -9 9
-13 24 -10 32 8 20 40 21 56 3z m220 -1 c9 -11 8 -18 -4 -30 -9 -9 -20 -16
-24 -16 -15 0 -33 30 -27 45 7 19 40 20 55 1z m219 -12 c4 -28 -28 -41 -45
-19 -16 23 -5 47 21 43 13 -2 22 -11 24 -24z m220 0 c2 -13 -4 -24 -13 -28
-24 -9 -35 1 -35 30 0 21 4 25 23 22 13 -2 23 -11 25 -24z m220 0 c4 -28 -28
-41 -45 -19 -16 23 -5 47 21 43 13 -2 22 -11 24 -24z m219 10 c3 -8 -2 -23
-11 -32 -16 -16 -18 -16 -31 1 -7 11 -11 25 -8 33 7 19 42 18 50 -2z m221 -10
c2 -12 -4 -24 -12 -27 -20 -8 -47 19 -39 39 8 22 47 13 51 -12z m220 0 c4 -26
-20 -37 -43 -21 -10 8 -14 19 -9 30 9 25 48 18 52 -9z m219 10 c3 -8 -1 -22
-9 -30 -19 -19 -52 3 -42 29 8 21 43 22 51 1z m-1869 -200 c4 -27 -26 -40 -46
-20 -21 20 -8 48 20 44 14 -2 24 -11 26 -24z m220 0 c4 -27 -26 -40 -46 -20
-21 20 -8 48 20 44 14 -2 24 -11 26 -24z m219 10 c3 -8 -2 -23 -11 -32 -15
-15 -17 -15 -32 0 -21 21 -11 48 16 48 11 0 23 -7 27 -16z m220 0 c3 -8 -1
-23 -10 -31 -13 -13 -19 -14 -31 -3 -28 22 -17 47 22 49 7 1 15 -6 19 -15z
m220 0 c3 -8 -2 -23 -11 -32 -15 -15 -17 -15 -33 0 -13 14 -14 20 -3 32 16 20
39 20 47 0z m222 3 c8 -11 6 -18 -9 -32 -19 -17 -22 -17 -37 -2 -13 13 -14 19
-3 31 15 20 34 20 49 3z m220 -1 c9 -11 8 -18 -5 -30 -19 -19 -33 -17 -48 7
-19 30 30 51 53 23z m219 1 c11 -13 -7 -47 -25 -47 -18 0 -34 27 -27 44 7 19
37 21 52 3z m221 0 c15 -19 -10 -53 -33 -44 -23 9 -21 57 3 57 10 0 24 -6 30
-13z m220 0 c15 -19 -10 -53 -33 -44 -23 9 -21 57 3 57 10 0 24 -6 30 -13z
m-2092 -193 c3 -8 -1 -23 -10 -31 -13 -13 -19 -14 -31 -3 -28 22 -17 47 22 49
7 1 15 -6 19 -15z m222 3 c8 -11 6 -18 -9 -32 -19 -17 -22 -17 -37 -2 -13 13
-14 19 -3 31 15 20 34 20 49 3z m220 0 c17 -21 -23 -55 -44 -37 -27 22 -16 47
21 49 6 1 17 -5 23 -12z m218 -3 c3 -8 -2 -23 -11 -32 -15 -15 -17 -15 -33 0
-13 14 -14 20 -3 32 16 20 39 20 47 0z m218 -9 c0 -13 -8 -21 -22 -23 -17 -3
-23 2 -23 16 0 10 3 22 7 26 13 13 38 1 38 -19z m883 -3 c4 -28 -24 -41 -44
-20 -20 20 -7 50 20 46 13 -2 22 -12 24 -26z m220 0 c4 -28 -24 -41 -44 -20
-20 20 -7 50 20 46 13 -2 22 -12 24 -26z m220 0 c4 -28 -24 -41 -44 -20 -20
20 -7 50 20 46 13 -2 22 -12 24 -26z m-2589 -498 c64 -22 92 -38 130 -76 70
-68 91 -121 91 -228 0 -133 -49 -220 -165 -294 -84 -54 -162 -75 -277 -76
l-78 0 0 -94 c0 -93 0 -93 -32 -120 -31 -25 -38 -27 -123 -24 l-90 3 -3 438
-2 438 27 24 c28 24 29 24 253 25 176 0 235 -4 269 -16z m3141 1 c75 -13 146
-52 210 -116 55 -54 110 -145 110 -180 0 -10 5 -21 10 -24 6 -4 10 -53 10
-115 0 -62 -4 -111 -10 -115 -5 -3 -10 -15 -10 -26 0 -10 -4 -27 -9 -37 -5 -9
-15 -30 -22 -47 -20 -44 -127 -149 -179 -175 -201 -102 -458 -38 -574 144 -18
29 -39 70 -46 92 -7 21 -16 49 -21 62 -12 30 -12 175 0 204 5 13 15 43 22 67
14 46 70 124 123 174 37 33 146 87 178 88 13 0 32 5 43 10 20 8 95 6 165 -6z
m-2652 -420 c2 -224 5 -301 15 -307 6 -4 87 -8 180 -8 l167 0 0 -74 c0 -71 -1
-76 -29 -95 -28 -20 -42 -21 -285 -21 l-256 0 0 384 0 385 27 21 c23 18 38 20
102 18 l76 -3 3 -300z m1612 131 c0 -85 4 -157 8 -160 4 -2 72 67 151 155
l143 159 89 0 c49 0 89 -3 89 -6 0 -3 -46 -58 -102 -122 -125 -141 -168 -194
-168 -207 0 -8 68 -105 123 -175 62 -79 167 -226 167 -234 0 -3 -42 -6 -94 -6
l-94 0 -41 47 -41 48 6 -32 c4 -20 2 -33 -4 -33 -6 0 -21 15 -33 33 -13 17
-29 38 -36 45 -6 7 -33 39 -59 72 -26 33 -50 60 -55 60 -4 0 -17 -12 -28 -26
-18 -23 -21 -41 -21 -119 0 -90 -1 -93 -27 -111 -20 -12 -48 -18 -101 -18
l-73 -1 0 373 0 373 23 19 c18 15 39 19 101 20 l77 0 0 -154z m-699 17 c23
-32 45 -60 49 -63 3 -3 39 -50 80 -104 l75 -100 3 138 c3 135 3 138 30 162 24
21 35 24 97 21 l70 -2 3 -315 c1 -173 0 -324 -2 -335 -8 -31 -58 -55 -115 -55
l-50 0 -123 160 c-68 87 -126 159 -130 160 -5 0 -8 -61 -8 -136 0 -137 0 -137
-27 -160 -24 -20 -39 -24 -95 -24 l-68 0 0 332 c0 327 0 332 22 355 18 19 32
23 84 23 l62 0 43 -57z m-303 -55 c9 -9 12 -84 12 -278 l0 -266 -29 -28 c-25
-24 -34 -27 -87 -24 l-59 3 -3 276 -2 277 31 26 c23 20 41 26 78 26 26 0 52
-5 59 -12z"/>
<path d="M944 1177 c-2 -7 -3 -67 -2 -133 l3 -119 70 -3 c95 -5 170 14 184 45
16 35 12 114 -8 147 -27 47 -93 75 -174 76 -47 0 -69 -4 -73 -13z"/>
<path d="M4209 1211 c-137 -45 -205 -193 -163 -356 19 -77 97 -150 185 -174
140 -38 282 76 296 239 10 111 -30 204 -113 261 -39 26 -58 32 -113 35 -36 2
-78 0 -92 -5z"/>
<path d="M2946 1873 c-4 -5 -36 -8 -72 -9 -53 -1 -77 -7 -140 -39 -82 -40
-154 -98 -154 -122 0 -12 3 -13 14 -4 10 9 16 8 26 -4 9 -11 33 -15 86 -15 63
0 75 3 84 20 6 11 17 20 25 20 8 0 19 -9 25 -20 9 -17 21 -20 85 -20 64 0 76
3 85 20 6 11 17 20 25 20 8 0 19 -9 25 -20 9 -17 21 -20 89 -20 71 0 79 2 84
21 5 17 9 19 26 9 12 -6 21 -15 21 -20 0 -14 127 -13 135 1 15 23 -88 102
-175 134 -25 9 -54 20 -65 25 -55 22 -214 37 -229 23z"/>
<path d="M5120 930 c0 -404 -3 -544 -13 -571 -29 -83 -95 -149 -177 -178 -27
-9 -417 -12 -1715 -12 -924 -1 -1705 -4 -1735 -8 l-55 -7 55 -7 c30 -3 132
-11 225 -17 170 -11 235 -19 375 -47 93 -18 130 -24 153 -26 9 -1 17 -5 17 -9
0 -4 9 -8 20 -8 27 0 25 -14 -2 -28 -17 -8 413 -11 1555 -11 l1577 -1 0 690
c0 380 -3 690 -7 691 -71 5 -104 4 -130 -2 -18 -4 -33 -3 -33 1 0 4 -11 5 -25
2 -14 -2 -25 0 -25 4 0 5 -14 25 -30 44 l-29 35 -1 -535z m106 -12 c5 -15 0
-26 -17 -39 -29 -21 -39 -16 -39 20 0 50 41 64 56 19z"/>
<path d="M1 364 c0 -11 3 -14 6 -6 3 7 2 16 -1 19 -3 4 -6 -2 -5 -13z"/>
<path d="M400 205 c0 -7 61 -37 67 -32 2 3 -10 12 -28 21 -35 17 -39 19 -39
11z"/>
<path d="M493 163 c9 -2 23 -2 30 0 6 3 -1 5 -18 5 -16 0 -22 -2 -12 -5z"/>
<path d="M970 162 c-38 -4 -27 -7 65 -18 142 -16 208 -17 270 -1 l50 13 -40 7
c-44 7 -273 6 -345 -1z"/>
</g>
</svg>
